# xmcd CD database file
#
# Track frame offsets:
#	150
#	15678
#	31066
#	51811
#	69667
#	83271
#	94835
#	108577
#	121206
#	134774
#	151009
#	166170
#	182625
#	198212
#
# Disc length: 2811 seconds
#
# Revision: 0
# Processed by: cddbd v1.5.1PL0 Copyright (c) Steve Scherf et al.
# Submitted via: CDex 1.51
#
DISCID=a90af90e
DTITLE=Totalmente América - Sucessos Sertanejos cd2
DYEAR=2005
DGENRE=Country
TTITLE0=Em cima de rodeio
TTITLE1=Rodo sem borracha
TTITLE2=Marvada pinga
TTITLE3=Trovejou mais não choveu
TTITLE4=Nois enverga, mais não quebra
TTITLE5=Catira
TTITLE6=Você e doida demais
TTITLE7=Bica d'agua
TTITLE8=Nô cego
TTITLE9=A turma do zóio roxo
TTITLE10=Por você
TTITLE11=Magia
TTITLE12=Esperando na janela
TTITLE13=Gostosa
EXTD=YEAR: 2005
EXTT0=
EXTT1=
EXTT2=
EXTT3=
EXTT4=
EXTT5=
EXTT6=
EXTT7=
EXTT8=
EXTT9=
EXTT10=
EXTT11=
EXTT12=
EXTT13=
PLAYORDER=
